<svg xmlns="http://www.w3.org/2000/svg" width="186" height="186" viewBox="0 0 186 186" fill="none"><path d="M175.897 56.0745L102.05 43.523C97.6634 42.4262 93.1546 44.9853 92.0579 49.3722L90.8393 53.881L51.2349 52.0531C46.7261 51.5657 42.7047 54.8559 42.2173 59.3647L41.3643 67.0419H108.996C113.505 67.0419 117.161 70.6977 117.161 75.2065V126.388L130.809 127.85C135.318 128.337 139.339 126.266 139.827 121.757V121.635L156.887 124.803C161.274 125.9 165.783 123.341 166.88 118.954L181.747 65.9451C182.843 61.6801 180.284 57.1712 175.897 56.0745Z" fill="#DBDBDB"></path><path fill-rule="evenodd" clip-rule="evenodd" d="M25.7666 61.4995C21.9657 61.4995 18.8838 64.5814 18.8838 68.3824C18.8838 69.0902 18.3099 69.6641 17.602 69.6641C16.8942 69.6641 16.3203 69.0902 16.3203 68.3824C16.3203 63.1657 20.5499 58.936 25.7666 58.936H104.732C109.948 58.936 114.178 63.1657 114.178 68.3824V123.585C114.178 128.801 109.948 133.031 104.732 133.031H25.7666C20.5499 133.031 16.3203 128.801 16.3203 123.585V103.965C16.3203 103.257 16.8942 102.684 17.602 102.684C18.3099 102.684 18.8838 103.257 18.8838 103.965V123.585C18.8838 127.386 21.9657 130.468 25.7666 130.468H104.732C108.533 130.468 111.615 127.386 111.615 123.585V68.3824C111.615 64.5814 108.533 61.4995 104.732 61.4995H25.7666Z" fill="#153B44"></path><path fill-rule="evenodd" clip-rule="evenodd" d="M96.2235 37.8119C92.5412 36.789 88.7419 39.0393 87.8175 42.7371C87.6458 43.4238 86.9499 43.8413 86.2632 43.6696C85.5764 43.498 85.1589 42.8021 85.3306 42.1153C86.594 37.0614 91.7724 33.9549 96.8428 35.3237L170.676 47.751L170.724 47.7632C175.8 49.0322 178.912 54.2505 177.498 59.3422L177.497 59.3452L162.635 112.337C161.364 117.376 156.201 120.472 151.141 119.114L140.373 117.541C139.672 117.439 139.187 116.788 139.29 116.088C139.392 115.387 140.043 114.903 140.743 115.005L151.669 116.601L151.746 116.622C155.429 117.645 159.228 115.395 160.152 111.697L160.157 111.68L175.028 58.6561C175.028 58.6553 175.028 58.6546 175.028 58.6538C176.045 54.9878 173.818 51.2063 170.149 50.2619L96.2879 37.8298L96.2235 37.8119Z" fill="#153B44"></path><path fill-rule="evenodd" clip-rule="evenodd" d="M39.1069 52.5437L38.8644 55.3325C38.803 56.0377 38.1816 56.5597 37.4764 56.4984C36.7712 56.4371 36.2492 55.8157 36.3106 55.1104L36.5554 52.2943L36.5569 52.2809C37.1178 47.0925 41.7404 43.2858 46.95 43.829L135.421 48.4597L135.457 48.4635C140.657 49.0257 144.47 53.6687 143.905 58.8932L143.903 58.9076L136.713 113.745C136.144 118.936 131.508 122.74 126.291 122.179C126.289 122.179 126.287 122.178 126.285 122.178L117.765 121.326C117.061 121.256 116.547 120.628 116.618 119.923C116.688 119.219 117.316 118.705 118.021 118.775L126.551 119.628L126.561 119.63C130.354 120.04 133.754 117.271 134.166 113.454L134.168 113.44L141.358 58.6037C141.758 54.8274 139.01 51.4443 135.215 51.0158L46.7463 46.3852L46.711 46.3814C42.9221 45.9718 39.5257 48.7333 39.1069 52.5437Z" fill="#153B44"></path><path fill-rule="evenodd" clip-rule="evenodd" d="M56.168 93.7291C56.168 93.0212 56.7418 92.4474 57.4497 92.4474H105.828C106.536 92.4474 107.11 93.0212 107.11 93.7291C107.11 94.437 106.536 95.0108 105.828 95.0108H57.4497C56.7418 95.0108 56.168 94.437 56.168 93.7291Z" fill="#153B44"></path><path fill-rule="evenodd" clip-rule="evenodd" d="M36.6709 74.1097C36.6709 73.4018 37.2447 72.8279 37.9526 72.8279H103.513C104.221 72.8279 104.795 73.4018 104.795 74.1097C104.795 74.8175 104.221 75.3914 103.513 75.3914H37.9526C37.2447 75.3914 36.6709 74.8175 36.6709 74.1097Z" fill="#153B44"></path><path fill-rule="evenodd" clip-rule="evenodd" d="M37.1582 84.4678C37.1582 83.7599 37.732 83.186 38.4399 83.186H87.6712C88.3791 83.186 88.9529 83.7599 88.9529 84.4678C88.9529 85.1756 88.3791 85.7495 87.6712 85.7495H38.4399C37.732 85.7495 37.1582 85.1756 37.1582 84.4678Z" fill="#153B44"></path><path fill-rule="evenodd" clip-rule="evenodd" d="M115.889 90.166C115.972 89.463 116.61 88.9608 117.313 89.0442L131.692 90.7502C132.395 90.8336 132.897 91.4711 132.814 92.174C132.731 92.877 132.093 93.3792 131.39 93.2958L117.011 91.5898C116.308 91.5064 115.806 90.8689 115.889 90.166Z" fill="#153B44"></path><path fill-rule="evenodd" clip-rule="evenodd" d="M141.493 88.9842C141.623 88.2884 142.293 87.8301 142.989 87.9606L160.537 91.2508C161.232 91.3813 161.691 92.051 161.56 92.7468C161.43 93.4425 160.76 93.9008 160.064 93.7703L142.516 90.4801C141.821 90.3497 141.362 89.6799 141.493 88.9842Z" fill="#153B44"></path><path fill-rule="evenodd" clip-rule="evenodd" d="M38.075 113.412C32.6899 113.412 28.2675 117.834 28.2675 123.219C28.2675 123.927 27.6937 124.501 26.9858 124.501C26.2779 124.501 25.7041 123.927 25.7041 123.219C25.7041 116.418 31.2742 110.848 38.075 110.848C44.8759 110.848 50.446 116.418 50.446 123.219C50.446 123.927 49.8722 124.501 49.1643 124.501C48.4564 124.501 47.8826 123.927 47.8826 123.219C47.8826 117.834 43.4602 113.412 38.075 113.412Z" fill="#62CB62"></path><path fill-rule="evenodd" clip-rule="evenodd" d="M38.0742 99.154C34.8786 99.154 32.288 101.745 32.288 104.94C32.288 108.136 34.8786 110.726 38.0742 110.726C41.2698 110.726 43.8603 108.136 43.8603 104.94C43.8603 101.745 41.2698 99.154 38.0742 99.154ZM29.7246 104.94C29.7246 100.329 33.4628 96.5906 38.0742 96.5906C42.6855 96.5906 46.4238 100.329 46.4238 104.94C46.4238 109.552 42.6855 113.29 38.0742 113.29C33.4628 113.29 29.7246 109.552 29.7246 104.94Z" fill="#62CB62"></path><path d="M17.8456 99.0909C13.3368 95.9226 9.07175 92.6324 5.9034 88.1236C4.92852 86.6612 4.0755 85.0771 3.46621 83.371C1.63831 78.0092 5.41596 72.6474 10.7778 71.7944C12.9713 71.4288 14.921 72.0381 16.627 73.3785C17.1145 73.7441 17.4801 74.1097 17.9675 74.4753C18.2112 74.2316 18.5768 73.9878 18.8205 73.7441C22.72 70.5758 27.96 71.5506 30.7628 75.2064C33.0781 78.0092 33.3218 81.1776 31.9814 84.5896C30.8846 87.1487 29.3005 89.2203 27.4726 91.2919C24.6698 94.2165 21.2577 96.6537 17.8456 99.0909Z" fill="#62CB62"></path><path d="M66.833 112.495H59.887C58.7903 112.495 57.8154 113.47 57.8154 114.567V121.391C57.8154 122.488 58.7903 123.463 59.887 123.463H66.833C67.9298 123.463 68.9047 122.488 68.9047 121.391V114.567C68.9047 113.47 68.0516 112.495 66.833 112.495ZM60.7401 120.538V115.176H66.2237V120.538H60.7401Z" fill="#153B44"></path><path d="M66.833 98.6035H59.887C58.7903 98.6035 57.8154 99.5783 57.8154 100.675V107.499C57.8154 108.596 58.7903 109.571 59.887 109.571H66.833C67.9298 109.571 68.9047 108.596 68.9047 107.499V100.675C68.9047 99.4565 68.0516 98.6035 66.833 98.6035ZM60.7401 106.646V101.284H66.2237V106.646H60.7401Z" fill="#153B44"></path><path d="M80.6036 98.6035H73.6576C72.5608 98.6035 71.5859 99.5783 71.5859 100.675V107.499C71.5859 108.596 72.5608 109.571 73.6576 109.571H80.7254C81.8221 109.571 82.797 108.596 82.797 107.499V100.675C82.6752 99.4565 81.8222 98.6035 80.6036 98.6035ZM74.5106 106.646V101.284H80.1161V106.646H74.5106Z" fill="#153B44"></path><path d="M79.7505 115.055H71.5859V117.857H79.7505V115.055Z" fill="#153B44"></path><path d="M82.7957 112.374H79.8711V115.176H82.7957V112.374Z" fill="#153B44"></path><path d="M74.5106 112.374H71.5859V116.639H74.5106V112.374Z" fill="#153B44"></path><path d="M82.7957 117.857H79.8711V120.66H82.7957V117.857Z" fill="#153B44"></path><path d="M74.2669 120.66H71.5859V123.463H74.2669V120.66Z" fill="#153B44"></path><path d="M79.7502 120.66H77.0693V123.463H79.7502V120.66Z" fill="#153B44"></path><path d="M77.0686 117.004H74.3877V120.66H77.0686V117.004Z" fill="#153B44"></path><path fill-rule="evenodd" clip-rule="evenodd" d="M92.79 100.982C92.0748 100.982 91.5127 101.587 91.5127 102.259V120.173C91.5127 120.888 92.1175 121.45 92.79 121.45H102.782C103.415 121.45 104.06 120.805 104.06 120.173V102.259C104.06 101.544 103.455 100.982 102.782 100.982H92.79ZM88.9492 102.259C88.9492 100.251 90.5805 98.4185 92.79 98.4185H102.782C104.791 98.4185 106.623 100.05 106.623 102.259V120.173C106.623 122.221 104.831 124.013 102.782 124.013H92.79C90.7816 124.013 88.9492 122.382 88.9492 120.173V102.259Z" fill="#153B44"></path><path fill-rule="evenodd" clip-rule="evenodd" d="M91.3867 105.549C91.3867 104.842 91.9606 104.268 92.6684 104.268H103.514C104.222 104.268 104.796 104.842 104.796 105.549C104.796 106.257 104.222 106.831 103.514 106.831H92.6684C91.9606 106.831 91.3867 106.257 91.3867 105.549Z" fill="#153B44"></path><path fill-rule="evenodd" clip-rule="evenodd" d="M91.3867 116.761C91.3867 116.053 91.9606 115.479 92.6684 115.479H103.514C104.222 115.479 104.796 116.053 104.796 116.761C104.796 117.468 104.222 118.042 103.514 118.042H92.6684C91.9606 118.042 91.3867 117.468 91.3867 116.761Z" fill="#153B44"></path></svg>