<svg xmlns="http://www.w3.org/2000/svg" width="186" height="186" viewBox="0 0 186 186" fill="none"><path d="M159.181 57.0437H34.0811V52.2035C34.0811 49.1009 36.5008 46.6187 39.5254 46.6187H153.616C156.64 46.6187 159.06 49.1009 159.06 52.2035V57.0437H159.181Z" fill="#DBDBDB"></path><path d="M108.794 129.15H80.9941V150H108.794V129.15Z" fill="#DBDBDB"></path><path d="M34.0811 120.462V128.909C34.0811 131.443 36.1342 133.494 38.6705 133.494H156.789C158.601 133.494 160.05 132.046 160.05 130.236V120.462H34.0811Z" fill="#DBDBDB"></path><path fill-rule="evenodd" clip-rule="evenodd" d="M28 114.816C28 114.096 28.5683 113.512 29.2693 113.512H153.568C154.269 113.512 154.838 114.096 154.838 114.816C154.838 115.535 154.269 116.119 153.568 116.119H29.2693C28.5683 116.119 28 115.535 28 114.816Z" fill="#153B44"></path><path fill-rule="evenodd" clip-rule="evenodd" d="M74.9121 128.281H105.318V147.394H74.9121V128.281ZM77.4909 130.825V144.85H102.74V130.825H77.4909Z" fill="#153B44"></path><path fill-rule="evenodd" clip-rule="evenodd" d="M58.4062 146.091C58.4062 145.371 58.9763 144.787 59.6796 144.787H121.42C122.124 144.787 122.694 145.371 122.694 146.091C122.694 146.81 122.124 147.394 121.42 147.394H59.6796C58.9763 147.394 58.4062 146.81 58.4062 146.091Z" fill="#153B44"></path><path fill-rule="evenodd" clip-rule="evenodd" d="M55.7998 41.8095C55.7998 41.107 56.3687 40.5375 57.0704 40.5375H148.516C152.48 40.5375 155.706 43.7676 155.706 47.7354V58.378C155.706 59.0805 155.137 59.65 154.435 59.65C153.734 59.65 153.165 59.0805 153.165 58.378V47.7354C153.165 45.1726 151.076 43.0815 148.516 43.0815H57.0704C56.3687 43.0815 55.7998 42.512 55.7998 41.8095Z" fill="#153B44"></path><path fill-rule="evenodd" clip-rule="evenodd" d="M154.403 55.3063C155.122 55.3063 155.706 55.8474 155.706 56.515V61.9163C155.706 62.5839 155.122 63.125 154.403 63.125C153.683 63.125 153.1 62.5839 153.1 61.9163V56.515C153.1 55.8474 153.683 55.3063 154.403 55.3063Z" fill="#153B44"></path><path fill-rule="evenodd" clip-rule="evenodd" d="M28 47.7552C28 43.7765 31.2299 40.5375 35.1975 40.5375H48.3788C49.0813 40.5375 49.6508 41.1085 49.6508 41.813C49.6508 42.5174 49.0813 43.0885 48.3788 43.0885H35.1975C32.6349 43.0885 30.5439 45.1854 30.5439 47.7552V125.004C30.5439 126.846 32.0302 128.336 33.8673 128.336H149.718C151.576 128.336 153.162 126.825 153.162 124.882V108.511C153.162 107.807 153.732 107.236 154.434 107.236C155.137 107.236 155.706 107.807 155.706 108.511V124.882C155.706 128.276 152.939 130.887 149.718 130.887H33.8673C30.6253 130.887 28 128.255 28 125.004V47.7552Z" fill="#153B44"></path><path fill-rule="evenodd" clip-rule="evenodd" d="M28 52.2656C28 51.5459 28.5705 50.9625 29.2744 50.9625H154.432C155.136 50.9625 155.706 51.5459 155.706 52.2656C155.706 52.9853 155.136 53.5687 154.432 53.5687H29.2744C28.5705 53.5687 28 52.9853 28 52.2656Z" fill="#153B44"></path><path fill-rule="evenodd" clip-rule="evenodd" d="M34.9502 47.0531C34.9502 46.3334 35.4952 45.75 36.1676 45.75H38.9453C39.6177 45.75 40.1627 46.3334 40.1627 47.0531C40.1627 47.7728 39.6177 48.3562 38.9453 48.3562H36.1676C35.4952 48.3562 34.9502 47.7728 34.9502 47.0531Z" fill="#153B44"></path><path fill-rule="evenodd" clip-rule="evenodd" d="M42.7686 47.0531C42.7686 46.3334 43.3525 45.75 44.0728 45.75H46.6768C47.3971 45.75 47.9811 46.3334 47.9811 47.0531C47.9811 47.7728 47.3971 48.3562 46.6768 48.3562H44.0728C43.3525 48.3562 42.7686 47.7728 42.7686 47.0531Z" fill="#153B44"></path><path fill-rule="evenodd" clip-rule="evenodd" d="M103.431 63.9C100.632 63.9 98.3025 66.2042 98.3025 68.9742V75.5435C98.3025 76.2374 97.7339 76.7998 97.0326 76.7998C96.3312 76.7998 95.7627 76.2374 95.7627 75.5435V68.9742C95.7627 64.8165 99.2289 61.3875 103.431 61.3875H159.331C163.534 61.3875 167 64.8165 167 68.9742V101.582C167 105.74 163.534 109.169 159.331 109.169H103.431C99.2289 109.169 95.7627 105.74 95.7627 101.582V81.9934C95.7627 81.2996 96.3312 80.7371 97.0326 80.7371C97.7339 80.7371 98.3025 81.2996 98.3025 81.9934V101.582C98.3025 104.352 100.632 106.656 103.431 106.656H159.331C162.131 106.656 164.46 104.352 164.46 101.582V68.9742C164.46 66.2042 162.131 63.9 159.331 63.9H103.431Z" fill="#62CC62"></path><path fill-rule="evenodd" clip-rule="evenodd" d="M43.6377 76.5906C43.6377 75.8709 44.2117 75.2875 44.9197 75.2875H97.0869C97.795 75.2875 98.3689 75.8709 98.3689 76.5906C98.3689 77.3103 97.795 77.8937 97.0869 77.8937H44.9197C44.2117 77.8937 43.6377 77.3103 43.6377 76.5906Z" fill="#62CC62"></path><path fill-rule="evenodd" clip-rule="evenodd" d="M74.9121 85.2781C74.9121 84.5584 75.4964 83.975 76.2172 83.975H97.0632C97.784 83.975 98.3684 84.5584 98.3684 85.2781C98.3684 85.9978 97.784 86.5812 97.0632 86.5812H76.2172C75.4964 86.5812 74.9121 85.9978 74.9121 85.2781Z" fill="#62CC62"></path><path fill-rule="evenodd" clip-rule="evenodd" d="M55.7998 96.5719C55.7998 95.8522 56.3709 95.2687 57.0753 95.2687H97.0931C97.7975 95.2687 98.3686 95.8522 98.3686 96.5719C98.3686 97.2916 97.7975 97.875 97.0931 97.875H57.0753C56.3709 97.875 55.7998 97.2916 55.7998 96.5719Z" fill="#62CC62"></path><path fill-rule="evenodd" clip-rule="evenodd" d="M166.809 68.0647C167.179 68.6562 166.996 69.4334 166.401 69.8005L130.767 91.7937L96.345 69.7898C95.7561 69.4134 95.5856 68.6334 95.9642 68.0478C96.3428 67.4621 97.1272 67.2926 97.7161 67.6691L130.791 88.8117L165.064 67.6584C165.659 67.2913 166.44 67.4731 166.809 68.0647Z" fill="#62CC62"></path><path fill-rule="evenodd" clip-rule="evenodd" d="M134.983 86.4196C135.287 85.7983 136.047 85.5373 136.679 85.8365L166.281 99.8449C166.913 100.144 167.179 100.89 166.874 101.512C166.569 102.133 165.81 102.394 165.178 102.095L135.576 88.0864C134.944 87.7872 134.678 87.0409 134.983 86.4196Z" fill="#62CC62"></path><path fill-rule="evenodd" clip-rule="evenodd" d="M126.902 86.403C127.218 87.0198 126.962 87.7699 126.33 88.0783L97.6151 102.087C96.9829 102.395 96.2142 102.145 95.8981 101.528C95.582 100.911 95.8382 100.161 96.4704 99.853L125.185 85.8446C125.817 85.5362 126.586 85.7862 126.902 86.403Z" fill="#62CC62"></path></svg>