<svg xmlns="http://www.w3.org/2000/svg" width="186" height="186" viewBox="0 0 186 186" fill="none"><path fill-rule="evenodd" clip-rule="evenodd" d="M35.8418 73.4836C32.9464 73.4836 30.5178 75.8793 30.5178 78.7354V95.2646C30.5178 98.1207 32.9464 100.516 35.8418 100.516H68.1581C71.0536 100.516 73.4822 98.1207 73.4822 95.2646V78.7354C73.4822 75.8793 71.0536 73.4836 68.1581 73.4836H35.8418ZM28 78.7354C28 74.5076 31.5559 71 35.8418 71H68.1581C72.4441 71 76 74.5076 76 78.7354V95.2646C76 99.4924 72.4441 103 68.1581 103H35.8418C31.5559 103 28 99.4924 28 95.2646V78.7354Z" fill="#62CB62"></path><path fill-rule="evenodd" clip-rule="evenodd" d="M17.0281 80.8354C17.1768 80.2676 17.8731 79.9036 18.5834 80.0225L23.955 80.9213C24.6653 81.0401 25.1205 81.5968 24.9719 82.1646C24.8232 82.7324 24.1269 83.0964 23.4166 82.9775L18.045 82.0787C17.3347 81.9599 16.8795 81.4032 17.0281 80.8354Z" fill="#153B44"></path><path fill-rule="evenodd" clip-rule="evenodd" d="M21.3162 70.5259C21.8139 69.9216 22.7217 69.8237 23.3438 70.3071L27.4585 73.5045C28.0807 73.9879 28.1815 74.8697 27.6838 75.4741C27.1861 76.0784 26.2783 76.1763 25.6562 75.6929L21.5415 72.4955C20.9193 72.0121 20.8185 71.1303 21.3162 70.5259Z" fill="#153B44"></path><path fill-rule="evenodd" clip-rule="evenodd" d="M24.9378 88.8808C25.1539 89.5497 24.7889 90.2679 24.1225 90.4848L19.6602 91.9375C18.9938 92.1545 18.2783 91.7881 18.0622 91.1192C17.8461 90.4503 18.2111 89.7321 18.8775 89.5152L23.3398 88.0625C24.0062 87.8455 24.7217 88.2119 24.9378 88.8808Z" fill="#153B44"></path><path d="M39.7167 86H35.2833C34.5833 86 34 86.5932 34 87.3051V91.6949C34 92.4068 34.5833 93 35.2833 93H39.7167C40.4167 93 41 92.4068 41 91.6949V87.3051C41 86.5932 40.4167 86 39.7167 86ZM35.8667 91.1017V87.661H39.3667V91.1017H35.8667Z" fill="#153B44"></path><path d="M39.7167 78H35.2833C34.5833 78 34 78.5932 34 79.3051V83.6949C34 84.4068 34.5833 85 35.2833 85H39.7167C40.4167 85 41 84.4068 41 83.6949V79.3051C41 78.5932 40.4167 78 39.7167 78ZM35.8667 83.1017V79.661H39.3667V83.1017H35.8667Z" fill="#153B44"></path><path d="M48.7167 78H44.2833C43.5833 78 43 78.5932 43 79.3051V83.6949C43 84.4068 43.5833 85 44.2833 85H48.7167C49.4167 85 50 84.4068 50 83.6949V79.3051C50 78.5932 49.4167 78 48.7167 78ZM44.8667 83.1017V79.661H48.3667V83.1017H44.8667Z" fill="#153B44"></path><path d="M48 88H43V90H48V88Z" fill="#153B44"></path><path d="M50 86H48V88H50V86Z" fill="#153B44"></path><path d="M45 86H43V89H45V86Z" fill="#153B44"></path><path d="M50 90H48V92H50V90Z" fill="#153B44"></path><path d="M45 92H43V93H45V92Z" fill="#153B44"></path><path d="M48 92H47V93H48V92Z" fill="#153B44"></path><path d="M47 89H45V92H47V89Z" fill="#153B44"></path><path d="M121.177 149H79.8229C76.6144 149 74 146.396 74 143.2V56.7995C74 53.6039 76.6144 51 79.8229 51H121.177C124.386 51 127 53.6039 127 56.7995V143.319C127 146.514 124.386 149 121.177 149Z" fill="#DBDBDB"></path><path fill-rule="evenodd" clip-rule="evenodd" d="M72.552 47.4776C70.2872 47.4776 68.4826 49.2786 68.4826 51.5389V138.461C68.4826 140.721 70.2872 142.522 72.552 142.522H114.448C116.713 142.522 118.517 140.721 118.517 138.461V99.7112C118.517 99.027 119.073 98.4724 119.759 98.4724C120.444 98.4724 121 99.027 121 99.7112V138.461C121 142.09 118.084 145 114.448 145H72.552C68.9161 145 66 142.09 66 138.461V51.5389C66 47.9102 68.9161 45 72.552 45H74.2043C74.8898 45 75.4456 45.5546 75.4456 46.2388C75.4456 46.923 74.8898 47.4776 74.2043 47.4776H72.552Z" fill="#153B44"></path><path fill-rule="evenodd" clip-rule="evenodd" d="M113 46.2742C113 45.5705 113.57 45 114.274 45C118.007 45 121 47.9934 121 51.7258C121 52.4295 120.43 53 119.726 53C119.022 53 118.452 52.4295 118.452 51.7258C118.452 49.4009 116.599 47.5484 114.274 47.5484C113.57 47.5484 113 46.9779 113 46.2742Z" fill="#153B44"></path><path d="M120 131L67 130.881V57L120 57.119V131Z" fill="white"></path><path fill-rule="evenodd" clip-rule="evenodd" d="M66 56L121 56.1238V132L66 131.876V56ZM68.4879 58.4917V129.396L118.512 129.508V58.6042L68.4879 58.4917Z" fill="#153B44"></path><path d="M95.099 82C90.9631 82 87.418 79.3494 86.3545 75.8554C86.1182 75.1325 86 74.5301 86 73.8072V63.8072V50.3133C86 45.7349 90.0177 42 94.9808 42H127.241H156.31H157.019C161.982 42 166 45.7349 166 50.3133V73.8072C166 78.3855 161.982 82 157.019 82H95.099Z" fill="#DBDBDB"></path><path fill-rule="evenodd" clip-rule="evenodd" d="M66 56L121 56.1238V132L66 131.876V56ZM68.4773 58.4916V129.396L118.523 129.508V58.6042L68.4773 58.4916Z" fill="#153B44"></path><path fill-rule="evenodd" clip-rule="evenodd" d="M87 136C87 135.448 87.5223 135 88.1667 135H99.8333C100.478 135 101 135.448 101 136C101 136.552 100.478 137 99.8333 137H88.1667C87.5223 137 87 136.552 87 136Z" fill="#153B44"></path><path d="M89.1184 75C84.9737 75 81.4211 72.5176 80.3553 69.0895C80.1184 68.4984 80 67.7891 80 67.0799V50.2939V45.8019C80 41.5463 84.0263 38 89 38H123.224H151.289H152C156.974 38 161 41.5463 161 45.8019V67.1981C161 71.4537 156.974 75 152 75H89.1184Z" fill="white"></path><path fill-rule="evenodd" clip-rule="evenodd" d="M89.1853 39.456C84.761 39.456 81.4765 42.5605 81.4765 45.9338V66.9495C81.4765 67.5253 81.5749 68.0661 81.7411 68.4782L81.7594 68.5236L81.774 68.5703C82.6514 71.3743 85.6497 73.544 89.303 73.544H151.815C156.239 73.544 159.524 70.4395 159.524 67.0662V45.9338C159.524 42.5605 156.239 39.456 151.815 39.456H89.1853ZM79 45.9338C79 40.9007 83.7207 37 89.1853 37H151.815C157.279 37 162 40.9007 162 45.9338V67.0662C162 72.0993 157.279 76 151.815 76H89.303C84.7331 76 80.6814 73.2868 79.4231 69.3436C79.1314 68.5995 79 67.7577 79 66.9495V45.9338Z" fill="#153B44"></path><path fill-rule="evenodd" clip-rule="evenodd" d="M91.4984 49.7125C91.5703 49.6572 91.6523 49.5967 91.7436 49.5331C92.1627 49.241 92.7568 48.8984 93.4707 48.6731C94.7365 48.2735 96.4852 48.1973 98.5016 49.7313V63.2962C98.2595 63.1658 97.9981 63.0398 97.7178 62.9234C96.1305 62.2642 94.0105 61.9485 91.4984 62.7757V49.7125ZM92.699 46.3635C94.8197 45.6941 97.6652 45.7516 100.578 48.2534C100.846 48.4839 101 48.8152 101 49.1632V65.7858C101 66.3 100.667 66.7584 100.168 66.9302C99.6719 67.1011 99.1188 66.9513 98.7851 66.5561L98.7702 66.5392C98.7539 66.5212 98.7249 66.4898 98.6837 66.4479C98.6009 66.3639 98.4699 66.2387 98.2934 66.0932C97.9383 65.8006 97.4124 65.4372 96.7361 65.1563C95.4319 64.6147 93.4572 64.3277 90.8428 65.6998C90.4557 65.9029 89.9871 65.8932 89.6093 65.6742C89.2314 65.4551 89 65.059 89 64.6314V49.1632C89 48.8468 89.1271 48.5429 89.3542 48.3162L90.2492 49.1632C89.3542 48.3162 89.3552 48.3153 89.3552 48.3153L89.3562 48.3142L89.3587 48.3117L89.3649 48.3056L89.3823 48.2888C89.396 48.2755 89.4142 48.2582 89.4367 48.2373C89.4816 48.1956 89.5438 48.1394 89.6224 48.0721C89.7794 47.9378 90.0036 47.7577 90.2877 47.5597C90.8521 47.1664 91.6759 46.6865 92.699 46.3635Z" fill="#153B44"></path><path fill-rule="evenodd" clip-rule="evenodd" d="M110.657 48.3273C110.657 48.3273 110.658 48.3283 109.751 49.1633L110.658 48.3283C110.877 48.5538 111 48.8527 111 49.1633V64.6315C111 65.0591 110.769 65.4551 110.391 65.6742C110.013 65.8932 109.544 65.903 109.157 65.6998C106.543 64.3277 104.568 64.6147 103.264 65.1564C102.588 65.4372 102.062 65.8006 101.707 66.0932C101.53 66.2387 101.399 66.3639 101.316 66.4479C101.275 66.4898 101.246 66.5212 101.23 66.5392L101.215 66.5559L101.218 66.5524L101.219 66.5515C100.885 66.9501 100.33 67.1018 99.8319 66.9302C99.3332 66.7584 99 66.3 99 65.7858V49.1633C99 48.8105 99.1579 48.4751 99.4327 48.2444C102.397 45.7564 105.235 45.6918 107.349 46.3646C108.367 46.6888 109.181 47.1708 109.738 47.5662C110.018 47.7653 110.239 47.9464 110.393 48.0816C110.471 48.1494 110.532 48.206 110.576 48.2482C110.598 48.2693 110.616 48.2868 110.63 48.3002L110.647 48.3174L110.653 48.3237L110.656 48.3262L110.657 48.3273ZM100.249 65.7858L101.22 66.5505L101.219 66.5515C101.219 66.5515 101.22 66.5505 100.249 65.7858ZM101.498 63.2963L100.5 64.2411L100.249 65.7858C99.2789 65.0211 99.2798 65.02 99.2798 65.02L99.2809 65.0188L99.2832 65.016L99.2888 65.0093L99.3043 64.9913C99.3164 64.9774 99.3322 64.9594 99.3516 64.9379C99.3904 64.895 99.4438 64.8376 99.5115 64.7688C99.6468 64.6314 100.25 64.4473 100.5 64.2411C100.852 63.9506 101.256 63.4267 101.498 63.2963ZM101.498 49.7393V63.2963C101.74 63.1659 102.002 63.0398 102.282 62.9234C103.869 62.2642 105.99 61.9485 108.502 62.7757C109.095 62.971 107.867 62.4425 108.502 62.7757V49.7041C108.432 49.6494 108.353 49.5897 108.264 49.5268C107.856 49.2368 107.275 48.8963 106.571 48.6722C105.326 48.2757 103.571 48.1936 101.498 49.7393Z" fill="#153B44"></path><path d="M164.751 147H137.245C134.331 147 132 144.618 132 141.639V114.361C132 111.382 134.331 109 137.245 109H164.751C167.665 109 169.996 111.382 169.996 114.361V141.639C170.113 144.618 167.665 147 164.751 147Z" fill="#DBDBDB"></path><path d="M159.617 143H131.383C128.393 143 126 140.618 126 137.639V110.361C126 107.382 128.393 105 131.383 105H159.617C162.607 105 165 107.382 165 110.361V137.639C165 140.498 162.607 143 159.617 143Z" fill="#62CB62"></path><path d="M126 125.311L133.156 118.212L140.312 125.311L151.761 114L165 127.116V137.585C165 140.593 162.615 143 159.633 143H131.367C128.385 143 126 140.593 126 137.585V125.311Z" fill="#62CB62"></path><path d="M159.617 143H131.383C128.393 143 126 140.618 126 137.639V110.361C126 107.382 128.393 105 131.383 105H159.617C162.607 105 165 107.382 165 110.361V137.639C165 140.498 162.607 143 159.617 143Z" fill="#62CB62"></path><path fill-rule="evenodd" clip-rule="evenodd" d="M131.559 106.475C129.292 106.475 127.485 108.273 127.485 110.531V137.469C127.485 139.727 129.292 141.525 131.559 141.525H159.441C161.69 141.525 163.515 139.627 163.515 137.469V110.531C163.515 108.273 161.708 106.475 159.441 106.475H131.559ZM125 110.531C125 106.907 127.919 104 131.559 104H159.441C163.081 104 166 106.907 166 110.531V137.469C166 140.958 163.099 144 159.441 144H131.559C127.919 144 125 141.093 125 137.469V110.531Z" fill="#153B44"></path><path fill-rule="evenodd" clip-rule="evenodd" d="M119 48.2278C119 47.5497 119.573 47 120.28 47H140.72C141.427 47 142 47.5497 142 48.2278V63.7528C142 64.4309 141.427 64.9806 140.72 64.9806H132.733L127.876 69.6404C127.51 69.9915 126.96 70.0965 126.482 69.9065C126.004 69.7165 125.692 69.2688 125.692 68.7722V64.9806H120.28C119.573 64.9806 119 64.4309 119 63.7528V48.2278ZM121.559 49.4555V62.5251H126.972C127.678 62.5251 128.251 63.0747 128.251 63.7528V65.8081L131.298 62.8847C131.538 62.6544 131.864 62.5251 132.203 62.5251H139.441V49.4555H121.559Z" fill="#153B44"></path><path fill-rule="evenodd" clip-rule="evenodd" d="M124 53.5C124 52.6716 124.556 52 125.243 52H135.757C136.444 52 137 52.6716 137 53.5C137 54.3284 136.444 55 135.757 55H125.243C124.556 55 124 54.3284 124 53.5Z" fill="#153B44"></path><path fill-rule="evenodd" clip-rule="evenodd" d="M124 58.5C124 57.6716 124.588 57 125.314 57H132.686C133.412 57 134 57.6716 134 58.5C134 59.3284 133.412 60 132.686 60H125.314C124.588 60 124 59.3284 124 58.5Z" fill="#153B44"></path><path d="M150.5 51C151.328 51 152 50.3284 152 49.5C152 48.6716 151.328 48 150.5 48C149.672 48 149 48.6716 149 49.5C149 50.3284 149.672 51 150.5 51Z" fill="#62CB62"></path><path d="M150.5 58C151.328 58 152 57.3284 152 56.5C152 55.6716 151.328 55 150.5 55C149.672 55 149 55.6716 149 56.5C149 57.3284 149.672 58 150.5 58Z" fill="#62CB62"></path><path d="M150.5 64C151.328 64 152 63.3284 152 62.5C152 61.6716 151.328 61 150.5 61C149.672 61 149 61.6716 149 62.5C149 63.3284 149.672 64 150.5 64Z" fill="#62CB62"></path><path d="M112.067 99H153.933C156.206 99 158 100.773 158 103.018V107.982C158 110.227 156.206 112 153.933 112H112.067C109.794 112 108 110.227 108 107.982V103.018C108.12 100.773 109.914 99 112.067 99Z" fill="white"></path><path fill-rule="evenodd" clip-rule="evenodd" d="M109.492 103.13V107.904C109.492 109.414 110.71 110.592 112.273 110.592H153.727C155.29 110.592 156.508 109.414 156.508 107.904V103.096C156.508 101.586 155.29 100.408 153.727 100.408H112.273C110.871 100.408 109.592 101.551 109.492 103.13ZM107.002 103.033C107.152 100.277 109.419 98 112.273 98H153.727C156.666 98 159 100.256 159 103.096V107.904C159 110.744 156.666 113 153.727 113H112.273C109.334 113 107 110.744 107 107.904V103.064L107.002 103.033Z" fill="#153B44"></path><path d="M112.067 81H153.933C156.206 81 158 82.7727 158 85.0182V89.9818C158 92.2273 156.206 94 153.933 94H112.067C109.794 94 108 92.2273 108 89.9818V85.0182C108.12 82.7727 109.914 81 112.067 81Z" fill="white"></path><path fill-rule="evenodd" clip-rule="evenodd" d="M109.492 85.1302V89.9039C109.492 91.4139 110.71 92.592 112.273 92.592H153.727C155.29 92.592 156.508 91.4139 156.508 89.9039V85.0961C156.508 83.5861 155.29 82.408 153.727 82.408H112.273C110.871 82.408 109.592 83.5509 109.492 85.1302ZM107.002 85.0328C107.152 82.2772 109.419 80 112.273 80H153.727C156.666 80 159 82.2561 159 85.0961V89.9039C159 92.7439 156.666 95 153.727 95H112.273C109.334 95 107 92.7439 107 89.9039V85.0644L107.002 85.0328Z" fill="#153B44"></path><path fill-rule="evenodd" clip-rule="evenodd" d="M116 86.5C116 85.6716 116.504 85 117.125 85H132.875C133.496 85 134 85.6716 134 86.5C134 87.3284 133.496 88 132.875 88H117.125C116.504 88 116 87.3284 116 86.5Z" fill="#153B44"></path><path fill-rule="evenodd" clip-rule="evenodd" d="M116 105.5C116 104.672 116.504 104 117.125 104H132.875C133.496 104 134 104.672 134 105.5C134 106.328 133.496 107 132.875 107H117.125C116.504 107 116 106.328 116 105.5Z" fill="#153B44"></path><path fill-rule="evenodd" clip-rule="evenodd" d="M132 120.5C132 119.672 132.522 119 133.167 119H158.833C159.478 119 160 119.672 160 120.5C160 121.328 159.478 122 158.833 122H133.167C132.522 122 132 121.328 132 120.5Z" fill="#153B44"></path><path fill-rule="evenodd" clip-rule="evenodd" d="M132 126.5C132 125.672 132.522 125 133.167 125H158.833C159.478 125 160 125.672 160 126.5C160 127.328 159.478 128 158.833 128H133.167C132.522 128 132 127.328 132 126.5Z" fill="#153B44"></path><path fill-rule="evenodd" clip-rule="evenodd" d="M132 132.5C132 131.672 132.536 131 133.198 131H150.802C151.464 131 152 131.672 152 132.5C152 133.328 151.464 134 150.802 134H133.198C132.536 134 132 133.328 132 132.5Z" fill="#153B44"></path><path fill-rule="evenodd" clip-rule="evenodd" d="M88.5 101.433C82.4912 101.433 77.5696 106.094 77.5696 111.783C77.5696 112.455 76.9944 113 76.2848 113C75.5752 113 75 112.455 75 111.783C75 104.75 81.0721 99 88.5 99C95.9279 99 102 104.75 102 111.783C102 112.455 101.425 113 100.715 113C100.006 113 99.4304 112.455 99.4304 111.783C99.4304 106.094 94.5088 101.433 88.5 101.433Z" fill="#62CB62"></path><path fill-rule="evenodd" clip-rule="evenodd" d="M88.5 86.3995C85.1308 86.3995 82.3995 89.1308 82.3995 92.5C82.3995 95.8692 85.1308 98.6005 88.5 98.6005C91.8692 98.6005 94.6005 95.8692 94.6005 92.5C94.6005 89.1308 91.8692 86.3995 88.5 86.3995ZM80 92.5C80 87.8056 83.8056 84 88.5 84C93.1944 84 97 87.8056 97 92.5C97 97.1944 93.1944 101 88.5 101C83.8056 101 80 97.1944 80 92.5Z" fill="#62CB62"></path><path fill-rule="evenodd" clip-rule="evenodd" d="M56.7067 79.4657C56.0165 79.4657 55.474 80.0474 55.474 80.6943V90.3057C55.474 90.9936 56.0576 91.5343 56.7067 91.5343H61.2933C61.9423 91.5343 62.5261 90.9936 62.5261 90.3057V80.6943C62.5261 80.0064 61.9424 79.4657 61.2933 79.4657H56.7067ZM53 80.6943C53 78.7625 54.5743 77 56.7067 77H61.2933C63.2316 77 65 78.5691 65 80.6943V90.3057C65 92.4309 63.2316 94 61.2933 94H56.7067C54.7684 94 53 92.4309 53 90.3057V80.6943Z" fill="#153B44"></path><path fill-rule="evenodd" clip-rule="evenodd" d="M55 82C55 81.4477 55.5362 81 56.1977 81H62.8023C63.4638 81 64 81.4477 64 82C64 82.5523 63.4638 83 62.8023 83H56.1977C55.5362 83 55 82.5523 55 82Z" fill="#153B44"></path><path fill-rule="evenodd" clip-rule="evenodd" d="M55 89C55 88.4477 55.5362 88 56.1977 88H62.8023C63.4638 88 64 88.4477 64 89C64 89.5523 63.4638 90 62.8023 90H56.1977C55.5362 90 55 89.5523 55 89Z" fill="#153B44"></path></svg>