<svg xmlns="http://www.w3.org/2000/svg" width="41" height="41" viewBox="0 0 41 41" fill="none"><path opacity="0.4" d="M27.4835 3.83301H13.5168C7.45016 3.83301 3.8335 7.44967 3.8335 13.5163V27.4663C3.8335 33.5497 7.45016 37.1663 13.5168 37.1663H27.4668C33.5335 37.1663 37.1502 33.5497 37.1502 27.483V13.5163C37.1668 7.44967 33.5502 3.83301 27.4835 3.83301Z" fill="#62CC62"></path><path d="M26.4668 32.583C25.7835 32.583 25.2168 32.0163 25.2168 31.333V24.833C25.2168 24.1497 25.7835 23.583 26.4668 23.583C27.1501 23.583 27.7168 24.1497 27.7168 24.833V31.333C27.7168 32.0163 27.1501 32.583 26.4668 32.583Z" fill="#62CC62"></path><path d="M26.4668 14.167C25.7835 14.167 25.2168 13.6003 25.2168 12.917V9.66699C25.2168 8.98366 25.7835 8.41699 26.4668 8.41699C27.1501 8.41699 27.7168 8.98366 27.7168 9.66699V12.917C27.7168 13.6003 27.1501 14.167 26.4668 14.167Z" fill="#62CC62"></path><path d="M14.5332 32.583C13.8499 32.583 13.2832 32.0163 13.2832 31.333V28.083C13.2832 27.3997 13.8499 26.833 14.5332 26.833C15.2165 26.833 15.7832 27.3997 15.7832 28.083V31.333C15.7832 32.0163 15.2332 32.583 14.5332 32.583Z" fill="#62CC62"></path><path d="M14.5332 17.417C13.8499 17.417 13.2832 16.8503 13.2832 16.167V9.66699C13.2832 8.98366 13.8499 8.41699 14.5332 8.41699C15.2165 8.41699 15.7832 8.98366 15.7832 9.66699V16.167C15.7832 16.8503 15.2332 17.417 14.5332 17.417Z" fill="#62CC62"></path><path d="M26.4665 12.7168C23.9665 12.7168 21.9165 14.7501 21.9165 17.2501C21.9165 19.7501 23.9498 21.8001 26.4665 21.8001C28.9665 21.8001 30.9998 19.7668 30.9998 17.2501C30.9998 14.7335 28.9665 12.7168 26.4665 12.7168Z" fill="#62CC62"></path><path d="M14.5333 19.2168C12.0333 19.2168 10 21.2501 10 23.7668C10 26.2835 12.0333 28.3001 14.5333 28.3001C17.0333 28.3001 19.0833 26.2668 19.0833 23.7668C19.0833 21.2668 17.05 19.2168 14.5333 19.2168Z" fill="#62CC62"></path></svg>