<svg xmlns="http://www.w3.org/2000/svg" width="41" height="41" viewBox="0 0 41 41" fill="none"><path opacity="0.4" d="M27.484 3.83301H13.5173C7.45065 3.83301 3.83398 7.44967 3.83398 13.5163V27.4663C3.83398 33.5497 7.45065 37.1663 13.5173 37.1663H27.4673C33.534 37.1663 37.1507 33.5497 37.1507 27.483V13.5163C37.1673 7.44967 33.5507 3.83301 27.484 3.83301Z" fill="#62CC62"></path><path fill-rule="evenodd" clip-rule="evenodd" d="M15.1813 10.7697C15.7957 10.7035 16.2401 10.1517 16.1739 9.53723C16.1077 8.9228 15.5559 8.47839 14.9415 8.54462C14.3092 8.61278 13.6824 8.6855 13.0665 8.75696L12.848 8.7823C10.6734 9.03433 8.93539 10.748 8.65839 12.9182C8.49238 13.6309 8.46682 14.2147 8.44779 14.6495C8.44064 14.8127 8.43441 14.955 8.42201 15.0751C8.35858 15.6899 8.8055 16.2396 9.42023 16.3031C10.035 16.3665 10.5847 15.9196 10.6481 15.3048C10.6844 14.9538 10.6925 14.7152 10.6995 14.5089C10.7111 14.1661 10.7198 13.9121 10.8492 13.3789C10.8603 13.3331 10.8685 13.2866 10.8737 13.2398C11.0043 12.0756 11.9373 11.1408 13.1056 11.0054L13.324 10.98C13.941 10.9085 14.5586 10.8368 15.1813 10.7697ZM26.0597 8.54462C25.4454 8.47839 24.8936 8.9228 24.8274 9.53723C24.7611 10.1517 25.2055 10.7035 25.82 10.7697C26.4427 10.8368 27.0602 10.9084 27.6773 10.98L27.8955 11.0054C29.0639 11.1408 29.9969 12.0756 30.1276 13.2398L30.1331 13.2894C30.2081 13.9586 30.2833 14.629 30.3532 15.3048C30.4165 15.9196 30.9664 16.3665 31.581 16.3031C32.1958 16.2396 32.6427 15.6899 32.5793 15.0751C32.5084 14.3884 32.4321 13.7087 32.3573 13.0415L32.3516 12.9903C32.1041 10.7861 30.3519 9.03711 28.1534 8.7823L27.9349 8.75697C27.319 8.68551 26.6921 8.61278 26.0597 8.54462ZM10.6481 25.9413C10.5847 25.3266 10.035 24.8797 9.42023 24.9431C8.8055 25.0065 8.35858 25.5563 8.42201 26.171C8.49286 26.8576 8.5691 27.5371 8.64394 28.2042L8.64419 28.2063L8.64974 28.2559C8.89704 30.46 10.6494 32.209 12.848 32.4638L13.0662 32.4892C13.6822 32.5606 14.3091 32.6333 14.9415 32.7015C15.5559 32.7678 16.1077 32.3234 16.1739 31.709C16.2401 31.0945 15.7957 30.5427 15.1813 30.4765C14.5587 30.4094 13.9412 30.3377 13.3241 30.2661L13.1056 30.2409C11.9373 30.1054 11.0043 29.1704 10.8737 28.0063L10.8682 27.9567C10.7931 27.2875 10.7179 26.6172 10.6481 25.9413ZM32.5793 26.171C32.6427 25.5563 32.1958 25.0065 31.581 24.9431C30.9664 24.8797 30.4165 25.3266 30.3532 25.9413C30.2833 26.6172 30.2081 27.2875 30.1331 27.9567L30.1276 28.0063C29.9969 29.1704 29.0639 30.1054 27.8955 30.2409L27.6771 30.2661C27.0602 30.3377 26.4427 30.4094 25.82 30.4765C25.2055 30.5427 24.7611 31.0945 24.8274 31.709C24.8936 32.3234 25.4454 32.7678 26.0597 32.7015C26.6921 32.6333 27.3189 32.5606 27.9348 32.4892L28.1534 32.4638C30.3519 32.209 32.1041 30.46 32.3516 28.2559L32.3571 28.2063C32.4319 27.5391 32.5084 26.8578 32.5793 26.171ZM13.6759 20.623C13.6829 20.6522 13.7011 20.7194 13.7473 20.8303C13.8216 21.0088 13.9431 21.2401 14.1177 21.5108C14.4664 22.0513 14.9868 22.6872 15.6408 23.2928C16.9693 24.5229 18.6967 25.4928 20.5004 25.4928C22.3041 25.4928 24.0314 24.5229 25.36 23.2928C26.0141 22.6872 26.5343 22.0513 26.8831 21.5108C27.0577 21.2401 27.1792 21.0088 27.2535 20.8303C27.2997 20.7194 27.3178 20.6522 27.325 20.623C27.3178 20.5939 27.2997 20.5267 27.2535 20.4157C27.1792 20.2373 27.0577 20.0059 26.8831 19.7353C26.5343 19.1947 26.0141 18.5588 25.36 17.9532C24.0314 16.7231 22.3041 15.7533 20.5004 15.7533C18.6967 15.7533 16.9693 16.7231 15.6408 17.9532C14.9868 18.5588 14.4664 19.1947 14.1177 19.7353C13.9431 20.0059 13.8216 20.2373 13.7473 20.4157C13.7011 20.5267 13.6829 20.5939 13.6759 20.623ZM14.1204 16.3111C15.6683 14.8778 17.9147 13.5153 20.5004 13.5153C23.0861 13.5153 25.3325 14.8778 26.8804 16.3111C27.6646 17.0372 28.308 17.8158 28.7637 18.5222C28.9914 18.8751 29.1821 19.2254 29.3196 19.5555C29.4483 19.8647 29.567 20.2419 29.567 20.623C29.567 21.0042 29.4483 21.3813 29.3196 21.6906C29.1821 22.0207 28.9914 22.371 28.7637 22.7238C28.308 23.4303 27.6646 24.2089 26.8804 24.9349C25.3325 26.3682 23.0861 27.7308 20.5004 27.7308C17.9147 27.7308 15.6683 26.3682 14.1204 24.9349C13.3362 24.2089 12.6927 23.4303 12.237 22.7238C12.0094 22.371 11.8187 22.0207 11.6813 21.6906C11.5525 21.3813 11.4338 21.0042 11.4338 20.623C11.4338 20.2419 11.5525 19.8647 11.6813 19.5555C11.8187 19.2254 12.0094 18.8751 12.237 18.5222C12.6927 17.8158 13.3362 17.0372 14.1204 16.3111ZM20.5001 17.9371C19.7016 17.9371 19.0146 18.1631 18.5276 18.6501C18.0406 19.1371 17.8146 19.8241 17.8146 20.6226C17.8146 21.4212 18.0406 22.1082 18.5276 22.5952C19.0146 23.0822 19.7016 23.3082 20.5001 23.3082C21.2987 23.3082 21.9857 23.0822 22.4727 22.5952C22.9597 22.1082 23.1857 21.4212 23.1857 20.6226C23.1857 19.8241 22.9597 19.1371 22.4727 18.6501C21.9857 18.1631 21.2987 17.9371 20.5001 17.9371Z" fill="#62CC62"></path></svg>