<svg xmlns="http://www.w3.org/2000/svg" width="41" height="41" viewBox="0 0 41 41" fill="none"><path opacity="0.4" d="M27.483 3.83301H13.5163C7.44967 3.83301 3.83301 7.44967 3.83301 13.5163V27.4663C3.83301 33.5497 7.44967 37.1663 13.5163 37.1663H27.4663C33.533 37.1663 37.1497 33.5497 37.1497 27.483V13.5163C37.1663 7.44967 33.5497 3.83301 27.483 3.83301Z" fill="#62CC62"></path><path d="M11.9668 31.9998C11.2835 31.9998 10.7168 31.4331 10.7168 30.7498V27.2998C10.7168 26.6165 11.2835 26.0498 11.9668 26.0498C12.6501 26.0498 13.2168 26.6165 13.2168 27.2998V30.7498C13.2168 31.4498 12.6501 31.9998 11.9668 31.9998Z" fill="#62CC62"></path><path d="M20.5 31.9997C19.8167 31.9997 19.25 31.433 19.25 30.7497V23.833C19.25 23.1497 19.8167 22.583 20.5 22.583C21.1833 22.583 21.75 23.1497 21.75 23.833V30.7497C21.75 31.4497 21.1833 31.9997 20.5 31.9997Z" fill="#62CC62"></path><path d="M29.0332 31.9995C28.3499 31.9995 27.7832 31.4328 27.7832 30.7495V20.3828C27.7832 19.6995 28.3499 19.1328 29.0332 19.1328C29.7165 19.1328 30.2832 19.6995 30.2832 20.3828V30.7495C30.2832 31.4495 29.7332 31.9995 29.0332 31.9995Z" fill="#62CC62"></path><path d="M30.283 10.2C30.283 10.1167 30.2496 10.0167 30.233 9.93333C30.2163 9.86667 30.1996 9.78333 30.183 9.71667C30.1496 9.65 30.0996 9.6 30.0663 9.53333C30.0163 9.46667 29.9663 9.38333 29.8996 9.33333C29.883 9.31667 29.883 9.3 29.8663 9.3C29.8163 9.26667 29.7663 9.25 29.7163 9.21667C29.6496 9.16667 29.5663 9.11667 29.483 9.08333C29.3996 9.05 29.3163 9.05 29.233 9.03333C29.1663 9.01667 29.1163 9 29.0496 9H24.1663C23.483 9 22.9163 9.56667 22.9163 10.25C22.9163 10.9333 23.483 11.5 24.1663 11.5H26.2496C22.283 15.6667 17.283 18.6 11.6663 20.0167C10.9996 20.1833 10.583 20.8667 10.7496 21.5333C10.883 22.1 11.3996 22.4833 11.9663 22.4833C12.0663 22.4833 12.1663 22.4667 12.2663 22.45C18.2163 20.9667 23.533 17.8833 27.783 13.5167V15.1333C27.783 15.8167 28.3496 16.3833 29.033 16.3833C29.7163 16.3833 30.283 15.8167 30.283 15.1333V10.25C30.283 10.2333 30.283 10.2167 30.283 10.2Z" fill="#62CC62"></path></svg>