<svg width="18" height="19" viewBox="0 0 18 19" fill="none" xmlns="http://www.w3.org/2000/svg">
<path d="M9 0.5C4.03125 0.5 0 4.53125 0 9.5C0 14.4688 4.03125 18.5 9 18.5C13.9688 18.5 18 14.4688 18 9.5C18 4.53125 13.9688 0.5 9 0.5ZM8.71875 14.75C8.53333 14.75 8.35207 14.695 8.1979 14.592C8.04373 14.489 7.92357 14.3426 7.85261 14.1713C7.78166 14 7.76309 13.8115 7.79926 13.6296C7.83544 13.4477 7.92473 13.2807 8.05584 13.1496C8.18695 13.0185 8.354 12.9292 8.53585 12.893C8.71771 12.8568 8.90621 12.8754 9.07751 12.9464C9.24882 13.0173 9.39524 13.1375 9.49825 13.2917C9.60127 13.4458 9.65625 13.6271 9.65625 13.8125C9.65625 14.0611 9.55748 14.2996 9.38166 14.4754C9.20585 14.6512 8.96739 14.75 8.71875 14.75ZM10.2863 9.96875C9.52641 10.4788 9.42188 10.9461 9.42188 11.375C9.42188 11.549 9.35274 11.716 9.22966 11.839C9.10659 11.9621 8.93967 12.0312 8.76562 12.0312C8.59158 12.0312 8.42466 11.9621 8.30159 11.839C8.17852 11.716 8.10938 11.549 8.10938 11.375C8.10938 10.348 8.58188 9.53141 9.55406 8.87844C10.4578 8.27188 10.9688 7.8875 10.9688 7.04234C10.9688 6.46766 10.6406 6.03125 9.96141 5.70828C9.80156 5.63234 9.44578 5.55828 9.00797 5.56344C8.45859 5.57047 8.03203 5.70172 7.70344 5.96609C7.08375 6.46484 7.03125 7.00766 7.03125 7.01562C7.02709 7.10181 7.00601 7.18632 6.96919 7.26435C6.93237 7.34238 6.88054 7.4124 6.81667 7.4704C6.75279 7.5284 6.67811 7.57325 6.5969 7.60239C6.51569 7.63153 6.42954 7.64439 6.34336 7.64023C6.25718 7.63608 6.17266 7.61499 6.09463 7.57817C6.0166 7.54135 5.94659 7.48953 5.88859 7.42565C5.83059 7.36177 5.78574 7.2871 5.7566 7.20589C5.72745 7.12468 5.71459 7.03852 5.71875 6.95234C5.72391 6.83844 5.80313 5.81234 6.87984 4.94609C7.43813 4.49703 8.14828 4.26359 8.98922 4.25328C9.58453 4.24625 10.1437 4.34703 10.523 4.52609C11.6578 5.06281 12.2812 5.95766 12.2812 7.04234C12.2812 8.62813 11.2214 9.34016 10.2863 9.96875Z" fill="#CECECE"/>
</svg>
