<svg xmlns="http://www.w3.org/2000/svg" id="Capa_2" viewBox="0 0 394 393.2"><defs><style>      .st0 {        fill: #02a56c;      }    </style></defs><g id="Capa_1-2"><path class="st0" d="M183,.4c166.6-9.6,271.5,176.3,172.8,312.1-85.4,117.5-265.3,104.3-333.1-23.8C-43.3,163.9,42.1,8.4,183,.4ZM183.6,27.2c-27.1,7-45.1,32.6-56.4,56.7.3.5.8.6,1.2.8,3,1.2,10.2,2.1,13.7,2.8,13.6,2.4,27.6,4,41.5,4.2V27.2ZM210.1,27.2v64.4c19-.4,37.9-3.7,56.4-7.5-11.5-24-29.4-49.6-56.4-56.9h0ZM130.7,35.2c-19,7.3-36.6,18.5-51.4,32.4l24.9,9.5c6.4-15.2,15.8-29.4,26.5-41.9ZM313.4,67.1c-14.3-13.7-32-24.6-50.4-31.9,10.5,12.7,19.6,26.7,26.4,41.7l24-9.8h0ZM370.9,183.5c-2.6-36.1-16.8-71.4-40.3-98.8-10.5,5.3-20.9,11-32.1,14.4,9.4,27.1,14,55.7,15.5,84.4h56.9,0ZM22.3,183.5h57.4c.8-28.5,6-56.9,15-83.9-11.2-3.5-21.9-8.7-32.1-14.4-20.5,23.7-34.2,54.6-38.7,85.7-.6,4.2-.8,8.5-1.6,12.7ZM289,183.5c-1-26.1-5.3-52.2-13.5-76.9-21.3,6-43.3,8.7-65.4,10v66.9h78.9ZM183.6,116.6c-22.2-.9-44.4-4-65.9-9.5-3.7,11.6-6.7,23.4-8.9,35.3-2.4,13.6-3.7,27.3-4.7,41h79.4v-66.9ZM79.7,209.9H22.3c.8,4.2,1,8.4,1.6,12.7,4.5,31,18,60.5,37.6,84.7,10.2-6.6,21.6-10.7,32.6-15.7-8.8-26.3-13.5-53.9-14.4-81.7h0ZM183.6,209.9h-79.4c1.6,25.1,4.8,50.3,13,74.2.5.4,1.1.2,1.6.1,6-.6,14.3-3.6,20.8-4.7,14.5-2.6,29.3-4.2,44-4.7v-64.9h0ZM289,209.9h-78.9v64.9c22.5.4,44.6,4.5,66.4,9.4,7.5-24,11.7-49.1,12.5-74.4h0ZM370.9,209.9h-56.9c-1.3,27.7-5.9,55.2-14.4,81.6l32.2,15.3c.9,0,1.2-.7,1.7-1.3,3.5-3.6,8.4-11.4,11.2-15.8,15-23.9,24.2-51.6,26.3-79.9h0ZM183.6,299.3c-19.3,1.3-38.8,3.1-57.4,8.3,11.3,25.2,29.6,51.3,57.4,59.1v-67.4ZM210.1,299.3v67.4c27.9-8.1,46-34.2,57.4-59.4-18.9-4.4-38.1-6.8-57.4-8h0ZM103.2,314.3c-8.4,2.4-16.3,6.4-24.3,9.9-.5.2-.9-.3-.7.8,15.3,14,33,25.7,52.4,33.2-11.3-13.1-20.7-28-27.5-43.9ZM263.5,357.8c19-7.2,36.6-18.8,51.4-32.7-7.7-4.4-16.1-7.8-24.5-10.5-7.1,15.5-16.2,30-26.9,43.2Z"></path></g></svg>