<svg xmlns="http://www.w3.org/2000/svg" width="265" height="83" viewBox="0 0 265 83" fill="none"><g clip-path="url(#clip0_314_430)"><path d="M60.45 26.39C60.0967 25.37 60.33 24.86 61.15 24.86H64.21C64.81 24.86 65.2567 25.2667 65.55 26.08L72.72 46.7C73.2667 48.3867 73.64 49.5467 73.84 50.18C74.0718 50.9546 74.2554 51.7428 74.39 52.54H74.52C74.6543 51.7427 74.838 50.9545 75.07 50.18C75.27 49.5133 75.6433 48.3533 76.19 46.7L83.36 26.08C83.6533 25.2667 84.1 24.86 84.7 24.86H87.76C88.58 24.86 88.8133 25.37 88.46 26.39L78.2 55.77C77.76 57.0433 77.1967 57.68 76.51 57.68H72.38C71.7133 57.68 71.15 57.0433 70.69 55.77L60.45 26.39Z" fill="#153B44" stroke="#153B44" stroke-miterlimit="10"></path><path d="M92 41.27C92 36.3767 93.2133 32.33 95.64 29.13C98.0667 25.93 101.78 24.33 106.78 24.33C110.153 24.33 112.73 24.93 114.51 26.13C116.033 27.0777 117.347 28.3265 118.37 29.8C118.481 29.9191 118.563 30.0621 118.61 30.2181C118.657 30.374 118.667 30.5386 118.64 30.6991C118.613 30.8597 118.549 31.0118 118.454 31.1438C118.358 31.2757 118.234 31.3839 118.09 31.46L116.09 32.74C115.463 33.18 114.84 32.9 114.22 31.9C113.568 30.8945 112.696 30.05 111.67 29.43C110.151 28.6563 108.45 28.3106 106.75 28.43C105.472 28.3708 104.198 28.6283 103.044 29.1796C101.889 29.7309 100.888 30.5589 100.13 31.59C98.57 33.6967 97.79 36.9367 97.79 41.31C97.79 45.6833 98.57 48.9133 100.13 51C100.889 52.0326 101.891 52.8615 103.048 53.4128C104.205 53.9642 105.48 54.2208 106.76 54.16C108.625 54.2788 110.481 53.8139 112.07 52.83C113.174 52.0826 114.094 51.0944 114.76 49.94C115.3 48.96 115.913 48.68 116.6 49.1L118.69 50.35C119.317 50.7233 119.41 51.2867 118.97 52.04C117.972 53.4591 116.777 54.7286 115.42 55.81C113.573 57.4233 110.683 58.23 106.75 58.23C101.75 58.23 98.0367 56.63 95.61 53.43C93.1833 50.23 91.98 46.1767 92 41.27Z" fill="#153B44" stroke="#153B44" stroke-miterlimit="10"></path><path d="M124 48.92C123.944 47.1943 124.41 45.492 125.338 44.0359C126.266 42.5799 127.612 41.438 129.2 40.76C132.667 39.0333 137.85 38.0333 144.75 37.76V35.61C144.796 33.825 144.335 32.0635 143.42 30.53C142.533 29.1033 140.777 28.39 138.15 28.39C136.8 28.3475 135.452 28.5093 134.15 28.87C133.188 29.1759 132.27 29.6062 131.42 30.15C130.549 30.7104 129.756 31.3828 129.06 32.15C128.5 32.7767 127.97 32.8067 127.47 32.24L125.85 30.37C125.39 29.85 125.547 29.2267 126.32 28.5C127.274 27.5681 128.359 26.7798 129.54 26.16C130.782 25.5696 132.087 25.1233 133.43 24.83C134.98 24.4649 136.567 24.2803 138.16 24.28C142.513 24.28 145.617 25.4 147.47 27.64C149.323 29.88 150.25 32.9467 150.25 36.84V56.27C150.277 56.4623 150.259 56.6583 150.197 56.8424C150.135 57.0264 150.031 57.1935 149.893 57.3303C149.755 57.4672 149.587 57.57 149.403 57.6307C149.218 57.6914 149.022 57.7083 148.83 57.68H146C145.18 57.68 144.77 57.21 144.77 56.27V54.73C143.331 55.9062 141.696 56.8202 139.94 57.43C138.235 57.962 136.456 58.2218 134.67 58.2C131.25 58.2 128.62 57.3833 126.78 55.75C125.842 54.8867 125.106 53.8268 124.626 52.6461C124.145 51.4653 123.931 50.193 124 48.92ZM129.69 49.05C129.636 50.1451 129.918 51.2306 130.5 52.16C131.028 52.9319 131.834 53.4694 132.75 53.66C133.734 53.8823 134.741 53.993 135.75 53.99C137.282 53.9967 138.811 53.8392 140.31 53.52C141.994 53.077 143.537 52.2094 144.79 51V41.83C141.766 41.9834 138.757 42.3645 135.79 42.97C134.153 43.3364 132.645 44.1339 131.42 45.28C130.898 45.7504 130.478 46.3236 130.187 46.9637C129.896 47.6038 129.741 48.297 129.73 49L129.69 49.05Z" fill="#153B44" stroke="#153B44" stroke-miterlimit="10"></path><path d="M160.56 57.67C160.37 57.6953 160.176 57.676 159.995 57.6138C159.813 57.5515 159.648 57.448 159.514 57.3113C159.379 57.1746 159.278 57.0085 159.218 56.8261C159.158 56.6437 159.142 56.4499 159.17 56.26V26.26C159.141 26.0682 159.158 25.8724 159.219 25.6882C159.279 25.504 159.382 25.3366 159.519 25.1995C159.657 25.0624 159.824 24.9593 160.008 24.8986C160.192 24.8379 160.388 24.8213 160.58 24.85H163.21C163.402 24.8213 163.598 24.8379 163.782 24.8986C163.966 24.9593 164.133 25.0624 164.27 25.1995C164.408 25.3366 164.511 25.504 164.571 25.6882C164.632 25.8724 164.649 26.0682 164.62 26.26V30C165.462 28.3238 166.684 26.8682 168.19 25.75C169.704 24.7473 171.495 24.2438 173.31 24.31C174.269 24.2554 175.231 24.3705 176.15 24.65C176.25 24.6713 176.344 24.7136 176.426 24.774C176.508 24.8344 176.577 24.9116 176.627 25.0005C176.677 25.0894 176.708 25.1879 176.717 25.2895C176.726 25.3912 176.713 25.4936 176.68 25.59L175.96 28.15C175.853 28.5233 175.583 28.67 175.15 28.59C174.469 28.4494 173.776 28.3757 173.08 28.37C171.875 28.3705 170.689 28.6728 169.63 29.2492C168.572 29.8256 167.674 30.6578 167.02 31.67C165.427 33.87 164.63 36.87 164.63 40.67V56.27C164.658 56.4599 164.641 56.6537 164.582 56.8361C164.522 57.0185 164.421 57.1846 164.286 57.3213C164.152 57.458 163.987 57.5615 163.805 57.6238C163.624 57.686 163.43 57.7053 163.24 57.68L160.56 57.67Z" fill="#153B44" stroke="#153B44" stroke-miterlimit="10"></path><path d="M178.95 41.27C178.865 37.0883 180.013 32.974 182.25 29.44C183.257 27.8054 184.683 26.4698 186.379 25.5714C188.076 24.6729 189.982 24.2443 191.9 24.33C193.915 24.2407 195.921 24.6494 197.74 25.52C199.242 26.3482 200.575 27.4506 201.67 28.77H201.73C201.69 28.1433 201.67 27.5067 201.67 26.86V13C201.67 12.06 202.11 11.59 202.99 11.59H205.51C206.39 11.59 206.83 12.06 206.83 13V56.27C206.859 56.4618 206.842 56.6576 206.781 56.8418C206.721 57.026 206.618 57.1934 206.481 57.3305C206.343 57.4676 206.176 57.5707 205.992 57.6314C205.808 57.6921 205.612 57.7087 205.42 57.68H202.8C202.053 57.68 201.68 57.21 201.68 56.27V53.77C200.577 55.0844 199.237 56.18 197.73 57C195.911 57.8706 193.905 58.2793 191.89 58.19C189.972 58.2757 188.066 57.8471 186.369 56.9486C184.673 56.0502 183.247 54.7146 182.24 53.08C180.01 49.5506 178.866 45.4439 178.95 41.27ZM184.76 41.27C184.614 44.4938 185.303 47.7006 186.76 50.58C188.093 52.9533 190.383 54.14 193.63 54.14C194.692 54.1703 195.748 53.9818 196.734 53.5861C197.72 53.1904 198.614 52.596 199.36 51.84C200.88 50.3067 201.64 47.9733 201.64 44.84V37.67C201.64 34.5433 200.88 32.21 199.36 30.67C198.614 29.9139 197.72 29.3196 196.734 28.9239C195.748 28.5282 194.692 28.3397 193.63 28.37C190.397 28.37 188.107 29.5567 186.76 31.93C185.298 34.8183 184.609 38.0362 184.76 41.27Z" fill="#153B44" stroke="#153B44" stroke-miterlimit="10"></path><path d="M214.42 54.61C213.753 54.0033 213.617 53.44 214.01 52.92L215.42 50.92C215.88 50.2933 216.547 50.3233 217.42 51.01C218.671 51.9595 220.056 52.7178 221.53 53.26C223.189 53.8462 224.94 54.1307 226.7 54.1C227.735 54.1158 228.767 53.9742 229.76 53.68C230.679 53.3835 231.496 52.8362 232.12 52.1C232.825 51.2295 233.181 50.1283 233.12 49.01C233.124 48.276 232.959 47.5509 232.64 46.89C232.311 46.2164 231.789 45.656 231.14 45.28C230.509 44.8802 229.839 44.5452 229.14 44.28C228.103 43.8863 227.045 43.5524 225.97 43.28C224.917 43.02 223.537 42.6167 221.83 42.07C220.683 41.717 219.59 41.2089 218.58 40.56C217.56 39.8844 216.683 39.0145 216 38C215.166 36.5977 214.77 34.9788 214.86 33.35C214.817 31.444 215.472 29.588 216.7 28.13C217.902 26.6818 219.517 25.6352 221.33 25.13C223.087 24.6117 224.908 24.3424 226.74 24.33C230.417 24.1376 234.05 25.195 237.05 27.33C237.204 27.3958 237.339 27.4992 237.443 27.6309C237.547 27.7626 237.616 27.9182 237.644 28.0835C237.672 28.2488 237.657 28.4184 237.603 28.5768C237.548 28.7352 237.454 28.8773 237.33 28.99L235.92 30.87C235.48 31.4767 234.813 31.4567 233.92 30.81C232.902 30.1514 231.799 29.6365 230.64 29.28C229.447 28.842 228.191 28.5989 226.92 28.56C225.781 28.5382 224.645 28.6865 223.55 29C222.658 29.2624 221.864 29.7846 221.27 30.5C220.691 31.2026 220.382 32.0895 220.4 33C220.381 33.6825 220.497 34.362 220.74 35C221.016 35.6329 221.458 36.179 222.02 36.58C222.812 37.1362 223.705 37.5304 224.65 37.74L229.45 38.99C230.795 39.3275 232.107 39.7861 233.37 40.36C234.676 40.92 235.868 41.7129 236.89 42.7C237.666 43.4772 238.249 44.4261 238.59 45.47C238.915 46.5395 239.073 47.6524 239.06 48.77C239.114 50.8388 238.402 52.8546 237.06 54.43C235.909 55.855 234.376 56.9232 232.64 57.51C230.733 58.06 228.754 58.3196 226.77 58.28C224.043 58.3474 221.328 57.8961 218.77 56.95C217.2 56.418 215.729 55.627 214.42 54.61Z" fill="#153B44" stroke="#153B44" stroke-miterlimit="10"></path><path d="M250.95 52.13H244.82V58.26H250.95V52.13Z" fill="#62CC62"></path><path d="M38.33 49.55C38.33 51.3402 37.6188 53.0571 36.353 54.323C35.0871 55.5888 33.3702 56.3 31.58 56.3H14.24C12.4498 56.3 10.7329 55.5888 9.46702 54.323C8.20115 53.0571 7.48999 51.3402 7.48999 49.55V26.55C7.48999 24.7598 8.20115 23.0429 9.46702 21.777C10.7329 20.5112 12.4498 19.8 14.24 19.8H31.58C33.3702 19.8 35.0871 20.5112 36.353 21.777C37.6188 23.0429 38.33 24.7598 38.33 26.55V49.55ZM49.72 38.16C49.72 39.945 49.013 41.6574 47.7536 42.9224C46.4942 44.1874 44.785 44.9021 43 44.91H25.63C23.8398 44.91 22.1229 44.1988 20.857 42.933C19.5911 41.6671 18.88 39.9502 18.88 38.16V15.16C18.88 13.3698 19.5911 11.6529 20.857 10.387C22.1229 9.12116 23.8398 8.41 25.63 8.41H43C44.7902 8.41 46.5071 9.12116 47.773 10.387C49.0388 11.6529 49.75 13.3698 49.75 15.16L49.72 38.16Z" stroke="#153B44" stroke-width="5.63" stroke-miterlimit="10"></path><path d="M21.69 17.01H16.06V22.64H21.69V17.01Z" fill="#62CC62"></path><path d="M41.15 42.1H35.51V47.74H41.15V42.1Z" fill="#62CC62"></path><path d="M125.57 78.23C125.27 78.23 125.12 78.09 125.12 77.81V65C125.112 64.9429 125.117 64.8846 125.135 64.8298C125.153 64.775 125.184 64.7252 125.224 64.6844C125.265 64.6436 125.315 64.6129 125.37 64.5948C125.425 64.5766 125.483 64.5716 125.54 64.58H126.34C126.397 64.5716 126.455 64.5766 126.51 64.5948C126.565 64.6129 126.615 64.6436 126.656 64.6844C126.696 64.7252 126.727 64.775 126.745 64.8298C126.763 64.8846 126.768 64.9429 126.76 65V69.13C126.76 69.3233 126.76 69.5133 126.76 69.7C127.076 69.296 127.466 68.9566 127.91 68.7C128.442 68.4424 129.03 68.3221 129.62 68.35C130.183 68.3269 130.742 68.4559 131.238 68.7233C131.735 68.9908 132.15 69.3869 132.44 69.87C133.067 70.9297 133.398 72.1385 133.398 73.37C133.398 74.6015 133.067 75.8103 132.44 76.87C132.15 77.3532 131.735 77.7492 131.238 78.0167C130.742 78.2841 130.183 78.4131 129.62 78.39C129.03 78.4179 128.442 78.2976 127.91 78.04C127.466 77.7835 127.076 77.444 126.76 77.04V77.78C126.76 78.06 126.64 78.2 126.4 78.2L125.57 78.23ZM126.76 74.43C126.7 75.1798 126.937 75.9232 127.42 76.5C127.636 76.7234 127.896 76.8992 128.183 77.0163C128.471 77.1334 128.78 77.1892 129.09 77.18C129.49 77.2128 129.891 77.1304 130.245 76.9425C130.599 76.7547 130.893 76.4693 131.09 76.12C131.479 75.25 131.679 74.3079 131.679 73.355C131.679 72.4022 131.479 71.46 131.09 70.59C130.893 70.2408 130.599 69.9553 130.245 69.7675C129.891 69.5796 129.49 69.4972 129.09 69.53C128.78 69.5208 128.471 69.5766 128.183 69.6937C127.896 69.8108 127.636 69.9866 127.42 70.21C126.937 70.7869 126.7 71.5302 126.76 72.28V74.43Z" fill="#153B44"></path><path d="M134.83 68.95C134.717 68.65 134.787 68.5 135.04 68.5H135.94C136.12 68.5 136.253 68.62 136.34 68.86L138.55 75L138.77 75.78C138.86 76.1088 138.93 76.4428 138.98 76.78C139.016 76.5241 139.066 76.2703 139.13 76.02L139.4 75.02L141.59 68.9C141.677 68.66 141.81 68.54 141.99 68.54H142.9C143.153 68.54 143.223 68.69 143.11 68.99L140 77.67C139.614 78.8795 139.084 80.0379 138.42 81.12C138.187 81.4494 137.873 81.7141 137.509 81.889C137.145 82.0639 136.743 82.1434 136.34 82.12C135.946 82.1382 135.552 82.0664 135.19 81.91C135.161 81.9013 135.134 81.8866 135.112 81.8667C135.089 81.8468 135.071 81.8223 135.059 81.7947C135.046 81.7672 135.04 81.7374 135.04 81.7072C135.041 81.6771 135.047 81.6473 135.06 81.62L135.3 80.87C135.304 80.8428 135.314 80.817 135.331 80.7951C135.347 80.7732 135.369 80.7559 135.394 80.7449C135.419 80.7338 135.447 80.7294 135.474 80.7321C135.501 80.7347 135.528 80.7443 135.55 80.76C135.78 80.8609 136.029 80.9153 136.28 80.92C136.504 80.913 136.722 80.8439 136.909 80.7203C137.096 80.5967 137.246 80.4235 137.34 80.22C137.603 79.7726 137.82 79.3003 137.99 78.81L138.18 78.26L134.83 68.95Z" fill="#153B44"></path><path d="M150.56 66.52C150.207 66.52 150.03 66.38 150.03 66.1V65.34C150.03 65.06 150.207 64.92 150.56 64.92H160.68C161.033 64.92 161.21 65.06 161.21 65.34V66.1C161.21 66.38 161.033 66.52 160.68 66.52H156.51V77.72C156.51 78.06 156.357 78.23 156.05 78.23H155.2C154.893 78.23 154.74 78.06 154.74 77.72V66.52H150.56Z" fill="#153B44"></path><path d="M162.94 66.73C162.883 66.7384 162.825 66.7334 162.77 66.7152C162.715 66.6971 162.665 66.6664 162.624 66.6256C162.584 66.5848 162.553 66.535 162.535 66.4802C162.517 66.4254 162.512 66.3671 162.52 66.31V65.51C162.512 65.4529 162.517 65.3946 162.535 65.3398C162.553 65.285 162.584 65.2352 162.624 65.1944C162.665 65.1536 162.715 65.1229 162.77 65.1048C162.825 65.0866 162.883 65.0816 162.94 65.09H163.74C163.797 65.0816 163.855 65.0866 163.91 65.1048C163.965 65.1229 164.015 65.1536 164.056 65.1944C164.096 65.2352 164.127 65.285 164.145 65.3398C164.163 65.3946 164.168 65.4529 164.16 65.51V66.31C164.168 66.3671 164.163 66.4254 164.145 66.4802C164.127 66.535 164.096 66.5848 164.056 66.6256C164.015 66.6664 163.965 66.6971 163.91 66.7152C163.855 66.7334 163.797 66.7384 163.74 66.73H162.94ZM162.94 78.23C162.883 78.2384 162.825 78.2334 162.77 78.2152C162.715 78.1971 162.665 78.1664 162.624 78.1256C162.584 78.0848 162.553 78.035 162.535 77.9802C162.517 77.9254 162.512 77.8671 162.52 77.81V68.91C162.512 68.8529 162.517 68.7946 162.535 68.7398C162.553 68.685 162.584 68.6352 162.624 68.5944C162.665 68.5536 162.715 68.5229 162.77 68.5048C162.825 68.4866 162.883 68.4816 162.94 68.49H163.74C163.797 68.4816 163.855 68.4866 163.91 68.5048C163.965 68.5229 164.015 68.5536 164.056 68.5944C164.096 68.6352 164.127 68.685 164.145 68.7398C164.163 68.7946 164.168 68.8529 164.16 68.91V77.82C164.168 77.8771 164.163 77.9354 164.145 77.9902C164.127 78.045 164.096 78.0948 164.056 78.1356C164.015 78.1764 163.965 78.2071 163.91 78.2252C163.855 78.2434 163.797 78.2484 163.74 78.24L162.94 78.23Z" fill="#153B44"></path><path d="M166.26 73.36C166.21 72.0733 166.59 70.8065 167.34 69.76C167.736 69.274 168.244 68.8911 168.821 68.6438C169.397 68.3966 170.025 68.2923 170.65 68.34C171.452 68.288 172.252 68.4723 172.95 68.87C173.404 69.1636 173.792 69.5484 174.09 70C174.122 70.0356 174.145 70.0777 174.158 70.1234C174.171 70.169 174.174 70.2171 174.167 70.264C174.159 70.311 174.141 70.3556 174.114 70.3947C174.087 70.4338 174.051 70.4663 174.01 70.49L173.43 70.87C173.243 70.9967 173.057 70.9133 172.87 70.62C172.675 70.3225 172.415 70.0729 172.11 69.89C171.661 69.656 171.156 69.5488 170.65 69.58C170.265 69.5571 169.88 69.6311 169.53 69.7953C169.181 69.9595 168.878 70.2087 168.65 70.52C168.193 71.413 167.954 72.4018 167.954 73.405C167.954 74.4082 168.193 75.397 168.65 76.29C168.878 76.602 169.18 76.8517 169.53 77.0159C169.879 77.1802 170.265 77.2538 170.65 77.23C171.204 77.2669 171.756 77.1306 172.23 76.84C172.558 76.6176 172.832 76.3235 173.03 75.98C173.19 75.6867 173.373 75.6033 173.58 75.73L174.2 76.1C174.387 76.2133 174.413 76.38 174.28 76.6C173.985 77.0214 173.632 77.3986 173.23 77.72C172.487 78.2596 171.575 78.515 170.66 78.44C170.031 78.487 169.401 78.3804 168.822 78.1296C168.244 77.8787 167.735 77.4911 167.34 77C166.581 75.9426 166.201 74.6602 166.26 73.36Z" fill="#153B44"></path><path d="M175.85 66.52C175.497 66.52 175.32 66.38 175.32 66.1V65.34C175.32 65.06 175.497 64.92 175.85 64.92H186C186.353 64.92 186.53 65.06 186.53 65.34V66.1C186.53 66.38 186.353 66.52 186 66.52H181.8V77.72C181.8 78.06 181.647 78.23 181.34 78.23H180.49C180.183 78.23 180.03 78.06 180.03 77.72V66.52H175.85Z" fill="#153B44"></path><path d="M185.64 78.23C185.353 78.23 185.29 78.0267 185.45 77.62L190.07 65.49C190.21 65.11 190.413 64.92 190.68 64.92H192C192.267 64.92 192.47 65.11 192.61 65.49L197.23 77.62C197.383 78.0267 197.32 78.23 197.04 78.23H196.2C196.063 78.233 195.929 78.1905 195.818 78.1091C195.708 78.0276 195.628 77.9119 195.59 77.78L194.42 74.71H188.27L187.1 77.78C187.062 77.9119 186.982 78.0276 186.872 78.1091C186.761 78.1905 186.627 78.233 186.49 78.23H185.64ZM188.83 73.23H193.83L192.42 69.52C192.253 69.1733 192.09 68.79 191.93 68.37C191.77 67.95 191.58 67.3533 191.36 66.58C191.14 67.3533 190.95 67.95 190.79 68.37C190.63 68.79 190.467 69.1733 190.3 69.52L188.83 73.23Z" fill="#153B44"></path><path d="M199.44 78.23C199.133 78.23 198.98 78.06 198.98 77.72V65.44C198.98 65.1 199.133 64.93 199.44 64.93H203.34C205.44 64.93 206.86 65.2833 207.6 65.99C208.309 66.7953 208.701 67.8318 208.701 68.905C208.701 69.9782 208.309 71.0147 207.6 71.82C206.867 72.5267 205.447 72.88 203.34 72.88H200.76V77.71C200.76 78.05 200.607 78.22 200.3 78.22L199.44 78.23ZM200.76 71.36H203.37C204.334 71.4534 205.304 71.2511 206.15 70.78C206.627 70.2704 206.893 69.5983 206.893 68.9C206.893 68.2017 206.627 67.5296 206.15 67.02C205.304 66.5489 204.334 66.3466 203.37 66.44H200.76V71.36Z" fill="#153B44"></path><path d="M205.2 5.25999H203.22C202.06 5.25999 201.12 6.2002 201.12 7.35999V55.82C201.12 56.9798 202.06 57.92 203.22 57.92H205.2C206.36 57.92 207.3 56.9798 207.3 55.82V7.35999C207.3 6.2002 206.36 5.25999 205.2 5.25999Z" fill="#153B44"></path></g><defs><clipPath id="clip0_314_430"><rect width="264.26" height="82.91" fill="white"></rect></clipPath></defs></svg>